/* XPM */
static char * bg_xpm[] = {
"16 11 64 1",
" 	c #F84646",
".	c #E4E5E5",
"+	c #36AC36",
"@	c #568324",
"#	c #79C171",
"$	c #F42D2D",
"%	c #179D17",
"&	c #FCFCFC",
"*	c #DCECDC",
"=	c #F31616",
"-	c #497914",
";	c #E6F3E6",
">	c #3CAC3C",
",	c #4DB94D",
"'	c #F2F2F2",
")	c #4BB54B",
"!	c #EEEEEE",
"~	c #EAF6EA",
"{	c #FA5B5B",
"]	c #FC6464",
"^	c #1CA31C",
"/	c #2DAA2D",
"(	c #FAFAFA",
"_	c #F7F7F7",
":	c #6A933D",
"<	c #F95253",
"[	c #EAEAEA",
"}	c #FA3D3D",
"|	c #729A47",
"1	c #F6F6F6",
"2	c #DEDEDE",
"3	c #EC0000",
"4	c #25A225",
"5	c #F53B3B",
"6	c #F30000",
"7	c #E50000",
"8	c #618B32",
"9	c #F33434",
"0	c #E3F1E3",
"a	c #40B340",
"b	c #F10D0D",
"c	c #52B852",
"d	c #008400",
"e	c #001E00",
"f	c #2BA52B",
"g	c #E00000",
"h	c #46B346",
"i	c #58BA58",
"j	c #209F20",
"k	c #E0EDDF",
"l	c #30A730",
"m	c #B7D3B7",
"n	c #D1E7D1",
"o	c #F80000",
"p	c #004200",
"q	c #F83434",
"r	c #3BB03A",
"s	c #E0EFE0",
"t	c #F52121",
"u	c #41B041",
"v	c #DD0000",
"w	c #FEFEFE",
"x	c #F5F5F5",
"y	c #FFFFFF",
"xxxxx'''!!![[...",
"xyywwww&&&&((__2",
"xywww&&&&((__1_2",
"n~~~;;;000sk**km",
"d#icc)hu>+lf4j>p",
"d#c,)hu>+lf4j%>p",
"d#,)har+/f4^^%+p",
"p#||::88@@@---8e",
"o] }5q$$tt==bb$g",
"o]{{<<   5599$$v",
"66633333777ggvvv"};
