/* XPM */
static char * da_xpm[] = {
"18 12 144 2",
"  	c None",
". 	c #000000",
"+ 	c #FFFFFF",
"@ 	c #D11112",
"# 	c #E82F30",
"$ 	c #FF6E6F",
"% 	c #FD6E6F",
"& 	c #C7BBBC",
"* 	c #CAC5C4",
"= 	c #FFF9F8",
"- 	c #E7E1E0",
"; 	c #CD0100",
"> 	c #CC0000",
", 	c #7F0000",
"' 	c #CD0101",
") 	c #CC0101",
"! 	c #CE0303",
"~ 	c #CC0303",
"{ 	c #D00505",
"] 	c #CC0505",
"^ 	c #CD0909",
"/ 	c #D40A0A",
"( 	c #D60D0D",
"_ 	c #D81010",
": 	c #8B0A0A",
"< 	c #CF1212",
"[ 	c #CE1515",
"} 	c #DE1818",
"| 	c #DE1A19",
"1 	c #D21818",
"2 	c #941111",
"3 	c #E11D1D",
"4 	c #DB1E1E",
"5 	c #E42121",
"6 	c #D4201F",
"7 	c #9D1919",
"8 	c #E82626",
"9 	c #A71B1B",
"0 	c #EB2B2B",
"a 	c #B02121",
"b 	c #EE2F2F",
"c 	c #B22323",
"d 	c #B92626",
"e 	c #DD302F",
"f 	c #BC2828",
"g 	c #F23535",
"h 	c #BF2A2A",
"i 	c #C42D2D",
"j 	c #C72E2E",
"k 	c #F53A3A",
"l 	c #D83333",
"m 	c #CA3030",
"n 	c #B22A2A",
"o 	c #A72828",
"p 	c #EB3939",
"q 	c #E13838",
"r 	c #D53635",
"s 	c #D23434",
"t 	c #CF3333",
"u 	c #F83E3E",
"v 	c #FA4242",
"w 	c #BB3232",
"x 	c #F54343",
"y 	c #E03F3E",
"z 	c #FC4646",
"A 	c #C13636",
"B 	c #E54242",
"C 	c #FE4A4A",
"D 	c #CD3D3C",
"E 	c #EA4646",
"F 	c #C63B3B",
"G 	c #FF4D4D",
"H 	c #F84B4B",
"I 	c #EE4949",
"J 	c #FF4F4F",
"K 	c #FE5050",
"L 	c #F24C4C",
"M 	c #FD5151",
"N 	c #F64E4E",
"O 	c #E04747",
"P 	c #DA4545",
"Q 	c #FB5151",
"R 	c #F95050",
"S 	c #FE5353",
"T 	c #F15050",
"U 	c #F25555",
"V 	c #F15454",
"W 	c #FF5A5A",
"X 	c #FD5A5A",
"Y 	c #EE5555",
"Z 	c #EC5454",
"` 	c #FB5D5D",
" .	c #D44E4E",
"..	c #E95959",
"+.	c #FD6464",
"@.	c #F76565",
"#.	c #CC5E5E",
"$.	c #CE5F5F",
"%.	c #D46C6C",
"&.	c #DB7171",
"*.	c #D47070",
"=.	c #E47C7C",
"-.	c #E18080",
";.	c #EE8989",
">.	c #CC8484",
",.	c #D08787",
"'.	c #D68E8E",
").	c #CC8989",
"!.	c #DDA2A2",
"~.	c #ECB2B2",
"{.	c #FAC2C2",
"].	c #FFC9C9",
"^.	c #D0BFBF",
"/.	c #D8C9C9",
"(.	c #E4D5D5",
"_.	c #F2E3E3",
":.	c #E1D3D3",
"<.	c #FCEEEE",
"[.	c #E5D8D8",
"}.	c #D2C6C6",
"|.	c #FEF1F1",
"1.	c #F6E9E9",
"2.	c #FFF3F3",
"3.	c #CCC2C2",
"4.	c #D6CECE",
"5.	c #E1DADA",
"6.	c #D5CFCF",
"7.	c #D4CECE",
"8.	c #FAF4F4",
"9.	c #F9F3F3",
"0.	c #F8F2F2",
"a.	c #EEE8E8",
"b.	c #EAE4E4",
"c.	c #D2CDCD",
"d.	c #CECACA",
"e.	c #CDCACA",
"f.	c #F6F6F6",
"g.	c #E7E7E7",
"h.	c #E1E1E1",
"i.	c #D8D8D8",
"j.	c #D1D1D1",
"k.	c #CFCFCF",
"l.	c #CDCDCD",
"m.	c #CCCCCC",
". . . . . . . . . . . . . . . . . . ",
". , , 7 F ].f.-.1 ] > { _ 5 g z K . ",
". , 2 w @.{.g.%.^ > ! ( 3 b v J R . ",
". : n ..+.~.i.$.) ' / } 0 u G Q I . ",
". o  .$ V !.k.#.; @ 4 # x S X U O . ",
". & 2.1.:.c.m.3.^./.(._.<.|.1.[.}.. ",
". 0.8.- 7.e.m.d.4.5.a.8.= 9.b.6.* . ",
". % Z l [ ).l.*.| p H W ` Y P D A . ",
". T e < ~ >.j.&.8 k C M L y t i d . ",
". q 1 ] > ,.i.=.g z K N B s j f a . ",
". 6 ^ > ! '.h.;.v J R E r m h c 9 . ",
". . . . . . . . . . . . . . . . . . "};
