/* XPM */
static char * de_xpm[] = {
"16 11 64 1",
" 	c #F0DC6E",
".	c #A53F2F",
"+	c #FC7575",
"@	c #F9EB97",
"#	c #A87D2F",
"$	c #B5B5AB",
"%	c #A8862F",
"&	c #F34747",
"*	c #998B7D",
"=	c #F5A656",
"-	c #F6B269",
";	c #949487",
">	c #A4A499",
",	c #696869",
"'	c #4A483A",
")	c #784C4B",
"!	c #ED2929",
"~	c #F6E587",
"{	c #9D7C7C",
"]	c #787878",
"^	c #FA6666",
"/	c #FCB2A9",
"(	c #F13C3C",
"_	c #9D772F",
":	c #FB6C6C",
"<	c #F8E565",
"[	c #F5E157",
"}	c #4A4A47",
"|	c #EAD32C",
"1	c #EF9236",
"2	c #EED83A",
"3	c #8C6565",
"4	c #F2DC48",
"5	c #F3E07A",
"6	c #F29B44",
"7	c #B38A2F",
"8	c #585858",
"9	c #EB8927",
"0	c #F96060",
"a	c #B6A42F",
"b	c #693939",
"c	c #3F3F3A",
"d	c #F65252",
"e	c #EF3333",
"f	c #BABAB1",
"g	c #F75959",
"h	c #BD4131",
"i	c #9B842F",
"j	c #FCD5A4",
"k	c #CAB8AF",
"l	c #F28070",
"m	c #835B5B",
"n	c #E6CD1D",
"o	c #EA1E1E",
"p	c #66493C",
"q	c #E8821D",
"r	c #EFE06D",
"s	c #ADADA3",
"t	c #957272",
"u	c #808181",
"v	c #FBF1A2",
"w	c #9C9C90",
"x	c #E8CF22",
"y	c #3F3F2F",
"}''''cyyyyyyyyyy",
"'fff$$sss>>ww;;y",
"'fuu]],,,88}}c*y",
"pk{{tt33m)))bb*y",
"h/++:^0gd&&(e!l.",
"h/+:^0gd&&(e!!l.",
"h/:^0gd&&(e!!ol.",
"#j--===661199q-.",
"av<<[[4422||xnri",
"a@@@@~~~555    _",
"7777##%%%i#_#___"};
