/* XPM */
static char * el_xpm[] = {
"16 11 65 1",
" 	c None",
".	c #0071FF",
"+	c #006BFF",
"@	c #0064FE",
"#	c #0057FB",
"$	c #004AF5",
"%	c #003DF1",
"&	c #0036EF",
"*	c #7EBEFF",
"=	c #75BAFE",
"-	c #6CB3FC",
";	c #65B1FC",
">	c #61AEFC",
",	c #5BAAFA",
"'	c #52A6F7",
")	c #0025EB",
"!	c #54A6FB",
"~	c #4CA1F9",
"{	c #469EF9",
"]	c #3F99F7",
"^	c #3896F5",
"/	c #3493F4",
"(	c #359BFF",
"_	c #A2D1FD",
":	c #8FC7FE",
"<	c #8AC3FC",
"[	c #85C0FB",
"}	c #80BDF4",
"|	c #7CBAF7",
"1	c #76B7F8",
"2	c #72B4F6",
"3	c #6DB1F5",
"4	c #6AAEF3",
"5	c #005FE7",
"6	c #FDFDFD",
"7	c #FCFCFC",
"8	c #FBF099",
"9	c #F6E48B",
"0	c #F4E286",
"a	c #F8EC8F",
"b	c #F6F6F6",
"c	c #F5F5F5",
"d	c #F4F4F4",
"e	c #E5E5E5",
"f	c #FBFBFB",
"g	c #FAED94",
"h	c #ADC3B1",
"i	c #CE9177",
"j	c #F7E98A",
"k	c #F3F3F3",
"l	c #FAFAFA",
"m	c #EDE180",
"n	c #2F94F9",
"o	c #7CB6E6",
"p	c #65ACF2",
"q	c #7AB6F3",
"r	c #0057DF",
"s	c #3A96F8",
"t	c #288BF5",
"u	c #1D86F3",
"v	c #1480F1",
"w	c #0003DE",
"x	c #429CF5",
"y	c #3B98F3",
"z	c #0013E5",
".++++@@###$$%%&&",
"+****===--;>,,')",
"@*;>>,!!~{{]^/~)",
"(_::<<[}}|1234|5",
"666677890abbcdce",
"66677fghijbcdkce",
"6677flgmmjcdkkde",
"n_<<[}|oo234ppqr",
"#-~{]s/nttuuvv/w",
"$;>,,!'~{x]y^//w",
"$%%&&)))zzzwwwww"};
