/* XPM */
static char * es_xpm[] = {
"16 11 65 1",
" 	c None",
".	c #FF0000",
"+	c #FD0000",
"@	c #F90000",
"#	c #F30000",
"$	c #EC0000",
"%	c #FF7A7A",
"&	c #FE7273",
"*	c #FD6B6B",
"=	c #FC6363",
"-	c #FC5C5C",
";	c #FA5353",
">	c #F74B4B",
",	c #FC4C4C",
"'	c #FA4444",
")	c #F93C3D",
"!	c #F83636",
"~	c #F43333",
"{	c #F42D2D",
"]	c #FDFD00",
"^	c #FEFE76",
"/	c #FEFE5A",
"(	c #F4EE57",
"_	c #EEDF4E",
":	c #F8F44B",
"<	c #FBFB45",
"[	c #F9F93C",
"}	c #F8F836",
"|	c #F6F630",
"1	c #F6F62B",
"2	c #F5F525",
"3	c #E6E600",
"4	c #F2F355",
"5	c #F17E57",
"6	c #EC6855",
"7	c #EDE08D",
"8	c #F0F241",
"9	c #F4F41F",
"0	c #F4F53B",
"a	c #FDFD53",
"b	c #F5C3B1",
"c	c #ECD3D4",
"d	c #F2BDB0",
"e	c #ECE142",
"f	c #F3F319",
"g	c #FDFD6D",
"h	c #FCFC4C",
"i	c #F9F1D6",
"j	c #E08C51",
"k	c #EC5351",
"l	c #F5EAE2",
"m	c #F2F213",
"n	c #C0CEA8",
"o	c #EBC94B",
"p	c #E4A74A",
"q	c #B6BB9D",
"r	c #DFDF00",
"s	c #F52121",
"t	c #F31616",
"u	c #F10D0D",
"v	c #E00000",
"w	c #F74444",
"x	c #F53B3B",
"y	c #DD0000",
"z	c #E50000",
"....++++@@@###$$",
".%%%%&&**==-;;>$",
".%---;;,'')!~{>$",
"]^//(_:<<[}|12:3",
"]^/45678[}|12903",
"]^ab6cde}|129f03",
"]ghijkl_|129fm03",
"]ghnopq8129fmm|r",
"@='))!{{ssttuu{v",
"@=--;;>wwxx~~{{y",
"###$$$$$zzzvvyyy"};
