/* XPM */
static char * fi_xpm[] = {
"16 11 64 1",
" 	c #FDFEFE",
".	c #C7CFDB",
"+	c #002BBC",
"@	c #4473D1",
"#	c #E3E9F3",
"$	c #F4F4F4",
"%	c #668EDE",
"&	c #5984D9",
"*	c #3B6CCD",
"=	c #DADEEB",
"-	c #F8F8F8",
";	c #517DD4",
">	c #B7BFCD",
",	c #6B91DE",
"'	c #3265CA",
")	c #F2F2F3",
"!	c #5580D6",
"~	c #BCC2D2",
"{	c #F7F8FA",
"]	c #80A2E3",
"^	c #86A6E5",
"/	c #DDE2ED",
"(	c #618AD9",
"_	c #4D7AD4",
":	c #C1C9D7",
"<	c #000089",
"[	c #4E7AD0",
"}	c #5F88DA",
"|	c #00009C",
"1	c #F5F5F5",
"2	c #638BDC",
"3	c #F6F6F6",
"4	c #4A78D3",
"5	c #FBFBFB",
"6	c #4F7CD5",
"7	c #F1F1F2",
"8	c #D1D7E3",
"9	c #F1F1F1",
"0	c #D3D9E5",
"a	c #D6DBE9",
"b	c #406FCF",
"c	c #F9FAFA",
"d	c #668DDA",
"e	c #CDD3DD",
"f	c #0034BF",
"g	c #5983D7",
"h	c #376ACC",
"i	c #83A4E3",
"j	c #B7BFD7",
"k	c #F8F9F9",
"l	c #FBFCFD",
"m	c #648CDC",
"n	c #A7B1C1",
"o	c #F9FBFC",
"p	c #F3F3F3",
"q	c #B9C1CF",
"r	c #4877D2",
"s	c #F6F7F8",
"t	c #E5EBF3",
"u	c #F2F2F2",
"v	c #FCFCFC",
"w	c #FAFAFA",
"x	c #F7F7F7",
"y	c #FFFFFF",
"tttt++fa//==a08:",
"tyy ^i] vv5wk-xe",
"ty  ,%mv5wk-x3x.",
"#  l%m}ck{s31$1:",
"f^,,2}&g!64@b*!<",
"+]%2}&!;_r@*h';<",
"+]m}&!6_r@b*''[<",
"=ok{!64x1$p)77)q",
"/vww64@31$pu99u>",
"/5wkd(}x31$p)uu>",
"=a08|||j::~~q>>n"};
