/* XPM */
static char * fr_xpm[] = {
"16 11 64 1",
" 	c #AAAAAA",
".	c #9AAFD9",
"+	c #F1F1F1",
"@	c #ED6456",
"#	c #C4D2ED",
"$	c #577BC5",
"%	c #E9E9EA",
"&	c #F4887E",
"*	c #DEDEDE",
"=	c #F8958C",
"-	c #D4D4D4",
";	c #D80000",
">	c #B4C5E7",
",	c #BCCBE9",
"'	c #6687CC",
")	c #EA6A5D",
"!	c #EEEEEE",
"~	c #A1B5DD",
"{	c #E6E6E6",
"]	c #E4E4E4",
"^	c #EE766A",
"/	c #B2C3E5",
"(	c #A6B9DE",
"_	c #F37E72",
":	c #F7F7F7",
"<	c #AABDE1",
"[	c #EE0900",
"}	c #7292D2",
"|	c #E40000",
"1	c #EA5749",
"2	c #F17064",
"3	c #C1CFEB",
"4	c #CFCFCF",
"5	c #F06A5C",
"6	c #C60000",
"7	c #AFBFE3",
"8	c #CC0000",
"9	c #EC6E62",
"0	c #F3776B",
"a	c #E9665A",
"b	c #EB5D4F",
"c	c #E85243",
"d	c #E64D3E",
"e	c #F4F4F4",
"f	c #BBBBBB",
"g	c #1747A5",
"h	c #F8F8F8",
"i	c #B7C8E7",
"j	c #EC5E50",
"k	c #ECEBEB",
"l	c #446CBB",
"m	c #E2E2E2",
"n	c #9F9F9F",
"o	c #6F8FD1",
"p	c #A6B9E0",
"q	c #B3B0B0",
"r	c #AEBFE4",
"s	c #2C57B0",
"t	c #AEC0E4",
"u	c #E8E8E8",
"v	c #EDEDED",
"w	c #EBEBEB",
"x	c #ECECEC",
"y	c #7395D3",
"yyyy}**--44[[|||",
"y###3h:::ee==&&|",
"y#i>/vxw%%{_02&;",
"}3>/t!wxw%{025_;",
"o3/r<!vk%u{25@^;",
"',r<p+!vvw%5@j^;",
"'i<(~+!xwu{@b198",
"$i(~.!xwu{]b1c)8",
"$/~..x%u{]m1cda6",
"l7<(~vx%u{{9)a@6",
"lsssgffq  n88666"};
