/* XPM */
static char * he_xpm[] = {
"18 12 153 2",
"  	c None",
". 	c #000000",
"+ 	c #FFFFFF",
"@ 	c #FFFEFF",
"# 	c #D5D4D5",
"$ 	c #C7C6C7",
"% 	c #84878B",
"& 	c #C3C7CB",
"* 	c #F4F8FC",
"= 	c #B6CCDE",
"- 	c #C8D8E6",
"; 	c #B3C0CB",
"> 	c #034576",
", 	c #0A71BE",
"' 	c #0F74BE",
") 	c #127AC7",
"! 	c #1275BF",
"~ 	c #1478C2",
"{ 	c #14588B",
"] 	c #2382C8",
"^ 	c #237EC1",
"/ 	c #1C5178",
"( 	c #3184C1",
"_ 	c #2B72A6",
": 	c #3585C2",
"< 	c #3585C0",
"[ 	c #3C8FCC",
"} 	c #367DB2",
"| 	c #3A85BC",
"1 	c #47A1E5",
"2 	c #31709E",
"3 	c #4598D5",
"4 	c #408EC7",
"5 	c #418EC7",
"6 	c #397AAA",
"7 	c #4C9DD9",
"8 	c #4790C6",
"9 	c #4184B5",
"0 	c #58AFF0",
"a 	c #53A0D9",
"b 	c #5DB3F2",
"c 	c #5AADEA",
"d 	c #4F96CA",
"e 	c #5FB2EF",
"f 	c #559DD3",
"g 	c #5EADE7",
"h 	c #5EAAE3",
"i 	c #5DA3D7",
"j 	c #6BBAF4",
"k 	c #6AB6EE",
"l 	c #65ACE0",
"m 	c #77BFF4",
"n 	c #8AC8F6",
"o 	c #81ACCC",
"p 	c #82A9C6",
"q 	c #92B8D6",
"r 	c #ABD3F1",
"s 	c #9BB5C8",
"t 	c #9DB6C9",
"u 	c #ACC3D4",
"v 	c #ABC1D2",
"w 	c #C8DFF1",
"x 	c #ACBDCA",
"y 	c #B2C1CD",
"z 	c #B4C1CB",
"A 	c #C6CBCF",
"B 	c #AAAEB1",
"C 	c #F5FAFE",
"D 	c #B2B6B9",
"E 	c #D8DCDF",
"F 	c #D1D5D8",
"G 	c #C8CCCF",
"H 	c #EAEEF1",
"I 	c #0772BF",
"J 	c #1477BE",
"K 	c #1F82CA",
"L 	c #2288D2",
"M 	c #207CBF",
"N 	c #2682C5",
"O 	c #2880C0",
"P 	c #2F90D6",
"Q 	c #2C87C9",
"R 	c #3498E0",
"S 	c #2D82C0",
"T 	c #3186C4",
"U 	c #3B94D4",
"V 	c #337CB1",
"W 	c #47A7ED",
"X 	c #3C8EC9",
"Y 	c #449BDA",
"Z 	c #418BC1",
"` 	c #53AFF2",
" .	c #4DA4E2",
"..	c #54ACEC",
"+.	c #4E9FD9",
"@.	c #366D95",
"#.	c #488EC0",
"$.	c #61B3EE",
"%.	c #60AADF",
"&.	c #69B5EC",
"*.	c #6EBAF1",
"=.	c #5994BE",
"-.	c #7ABCEC",
";.	c #A3BBCC",
">.	c #B9D2E4",
",.	c #DFF0FC",
"'.	c #E2EFF8",
").	c #C2C8CC",
"!.	c #EDF3F7",
"~.	c #CCCFD1",
"{.	c #F8FBFD",
"].	c #D8E6EF",
"^.	c #DFE6EA",
"/.	c #D6DBDE",
"(.	c #D4D9DC",
"_.	c #E0E5E8",
":.	c #F1F7FA",
"<.	c #E4EAED",
"[.	c #E2E8EB",
"}.	c #BDC1C3",
"|.	c #E9EEF0",
"1.	c #D4D5D5",
"2.	c #C1C2C2",
"3.	c #E7E7E6",
"4.	c #E0E0DF",
"5.	c #CDCDCC",
"6.	c #F8F7F7",
"7.	c #DDDCDC",
"8.	c #FEFEFE",
"9.	c #FDFDFD",
"0.	c #FCFCFC",
"a.	c #FBFBFB",
"b.	c #FAFAFA",
"c.	c #F9F9F9",
"d.	c #F6F6F6",
"e.	c #F5F5F5",
"f.	c #F2F2F2",
"g.	c #F1F1F1",
"h.	c #EEEEEE",
"i.	c #ECECEC",
"j.	c #EAEAEA",
"k.	c #E5E5E5",
"l.	c #E1E1E1",
"m.	c #DBDBDB",
"n.	c #DADADA",
"o.	c #D8D8D8",
"p.	c #D4D4D4",
"q.	c #D2D2D2",
"r.	c #CECECE",
"s.	c #CDCDCD",
"t.	c #CCCCCC",
"u.	c #CACACA",
"v.	c #A7A7A7",
". . . . . . . . . . . . . . . . . . ",
". / / @.=.n -.i 5 ( S T [ 7 g *.m . ",
". > { } &.$.Y ] ! , I ) L R W ` ... ",
". % B _.* [.F r.s t p./.^.!.C :.<.. ",
". v.p.@ g.7.y p Z 8 q - e.8.9.f.4.. ",
". $ + d.l.q.z < ;.u a ].0.8.d.k.q.. ",
". 6.b.3.1.s.; : v = h '.+ c.j.# u.. ",
". 9.i.o.r.t.x o f l r ,.a.h.n.5.2.. ",
". |.(.A & ).~.m.>.w 8.{.H E G }.D . ",
". 3 N J ' ~ K P 1 0 b c +.4 | V _ . ",
". X O M ^ Q U  .e j k %.d #.9 6 2 . ",
". . . . . . . . . . . . . . . . . . "};
