/* XPM */
static char * hu_xpm[] = {
"16 11 64 1",
" 	c #E46363",
".	c #61AD62",
"+	c #C60000",
"@	c #AA0000",
"#	c #004800",
"$	c #349434",
"%	c #54A554",
"&	c #E25555",
"*	c #DD4C4C",
"=	c #E45D5D",
"-	c #E5E5E5",
";	c #E66B6B",
">	c #000D00",
",	c #2E8E2E",
"'	c #0E7D0E",
")	c #E87474",
"!	c #F3F3F3",
"~	c #459E45",
"{	c #002500",
"]	c #BC0000",
"^	c #3D983D",
"/	c #3A963A",
"(	c #EA7B7B",
"_	c #B50000",
":	c #003800",
"<	c #E14C4C",
"[	c #2F912F",
"}	c #2A8E2A",
"|	c #248B24",
"1	c #D62A2A",
"2	c #1F871F",
"3	c #148114",
"4	c #DE4242",
"5	c #DC3C3D",
"6	c #DA3737",
"7	c #198419",
"8	c #F6F6F6",
"9	c #F8F8F8",
"0	c #FEFEFE",
"a	c #FAFAFA",
"b	c #FBFBFB",
"c	c #F9F9F9",
"d	c #F7F7F7",
"e	c #E15151",
"f	c #DF4747",
"g	c #E45959",
"h	c #D93131",
"i	c #E97979",
"j	c #409A40",
"k	c #49A149",
"l	c #DF5353",
"m	c #4B9F4B",
"n	c #FBFCFB",
"o	c #6AB36A",
"p	c #E25C5C",
"q	c #339032",
"r	c #F4F5F5",
"s	c #DB4444",
"t	c #F5F5F5",
"u	c #FCFCFC",
"v	c #F4F4F4",
"w	c #FDFDFD",
"x	c #CD0000",
"y	c #000000",
"xxxxx+++++]]]__@",
"x((ii));;  p&l*@",
"x(==g&e<f456h1f@",
"xi=g&e<f456h11s@",
"w00wuubac9d8tvt-",
"w0wuubac9d8tv!r-",
"wwunbac9d8tv!!v-",
"#ok~j/$[}|273'qy",
"#.~j/$[}|273'',y",
"#..%%%m~j^/$q,,y",
":::{{{>>>yyyyyyy"};
