/* XPM */
static char * nl_xpm[] = {
"16 11 64 1",
" 	c #000174",
".	c #FEFEFE",
"+	c #346EB2",
"@	c #00218F",
"#	c #FA6273",
"$	c #1658A7",
"%	c #F50000",
"&	c #F2F2F2",
"*	c #FAFAFA",
"=	c #F8F8F8",
"-	c #F6F6F6",
";	c #FE7A89",
">	c #5A8AC3",
",	c #FD5D6B",
"'	c #457BBA",
")	c #3A72B5",
"!	c #2A66AE",
"~	c #EB0000",
"{	c #6492C7",
"]	c #FA4251",
"^	c #FB5464",
"/	c #FD7583",
"(	c #000047",
"_	c #FF7A86",
":	c #000059",
"<	c #EEEFEF",
"[	c #2160AB",
"}	c #4277B7",
"|	c #0D51A2",
"1	c #4B7FBC",
"2	c #00003C",
"3	c #5082BF",
"4	c #5485C1",
"5	c #2F6AAE",
"6	c #D1D1D1",
"7	c #F93C4D",
"8	c #FE8291",
"9	c #D5D5D5",
"0	c #FB6A7A",
"a	c #F73142",
"b	c #F83747",
"c	c #3E76B8",
"d	c #FC4C5A",
"e	c #F5566A",
"f	c #F65A6E",
"g	c #FF1531",
"h	c #F95768",
"i	c #FE5967",
"j	c #779ECE",
"k	c #FE97A4",
"l	c #2E6AB2",
"m	c #F62C3C",
"n	c #FBFBFB",
"o	c #FA505F",
"p	c #FE7F8F",
"q	c #F86D7E",
"r	c #F94857",
"s	c #F4F5F5",
"t	c #FC7080",
"u	c #F5F5F5",
"v	c #FCFCFC",
"w	c #FD0000",
"x	c #F4F4F4",
"y	c #FF0000",
"yyyywwwww%%%%%~~",
"y;;_//t00##,h^o~",
"y_,,i^odr]7bamr~",
"gk8p;;/tq0##feq~",
"&...vvn**==-uxu9",
"<..vvn**==-ux&s6",
"<.vvn**==-ux&&x6",
"@j>431'})+5!![}(",
" {'c)+l![[$$||52",
" {>>431'}c)++5!2",
"    :::::(((2222"};
