/* XPM */
static char * ro_xpm[] = {
"16 11 64 1",
" 	c #F30303",
".	c #F7F72D",
"+	c #5C83DD",
"@	c #E90000",
"#	c #547CDD",
"$	c #F5D900",
"%	c #0022C7",
"&	c #F8F878",
"*	c #F43131",
"=	c #F74949",
"-	c #F95757",
";	c #F3F353",
">	c #F52C2C",
",	c #F31C1C",
"'	c #F3F33C",
")	c #F6E728",
"!	c #E7BC00",
"~	c #0002B8",
"{	c #F4E41C",
"]	c #F52424",
"^	c #F5F54B",
"/	c #7A9AE4",
"(	c #FDFD6D",
"_	c #6488DE",
":	c #4A74DA",
"<	c #7496E3",
"[	c #F21212",
"}	c #F9F93B",
"|	c #FAFA41",
"1	c #F8F835",
"2	c #406CD9",
"3	c #3D6AD7",
"4	c #F53D3D",
"5	c #F6E100",
"6	c #0000AD",
"7	c #FBFB47",
"8	c #FCFC4C",
"9	c #F5F524",
"0	c #4F78DC",
"a	c #E00000",
"b	c #F63737",
"c	c #5880DE",
"d	c #F7E930",
"e	c #F7F744",
"f	c #6A8EE0",
"g	c #6F91E0",
"h	c #EBC100",
"i	c #EFDD00",
"j	c #F6F658",
"k	c #FDFD51",
"l	c #FBF060",
"m	c #FCFC65",
"n	c #E3A900",
"o	c #7798E7",
"p	c #F4F41E",
"q	c #4570D7",
"r	c #4571DB",
"s	c #F9EC3D",
"t	c #0010BE",
"u	c #F4E739",
"v	c #F8EA36",
"w	c #F2F243",
"x	c #001DC3",
"y	c #DD0000",
"%xxxxi555i$   @@",
"x///o&((mml---=@",
"x/++cjk87|sb*>=@",
"x/+c#j87|}v*>]=@",
"x<c#0;7|}1d>],4@",
"t<#0:^|}1.)],,4@",
"tg0:rw}1..),,[ba",
"~f:q2w1..9{,[[*a",
"~_q33'..9p{[[[*a",
"6_+c#;^ee'ub**>y",
"~6666!h!!!naayyy"};
