/* XPM */
static char * ru_xpm[] = {
"16 11 64 1",
" 	c #8D8DF8",
".	c #F2F2FD",
"+	c #F42D2D",
"@	c #1818F3",
"#	c #CF3D68",
"$	c #9C9CFE",
"%	c #FCFCFC",
"&	c #C72756",
"*	c #F31616",
"=	c #3030F7",
"-	c #5555FD",
";	c #E3E4EF",
">	c #FA5B5B",
",	c #FC6464",
"'	c #2A2BF6",
")	c #8383F7",
"!	c #2222F5",
"~	c #FAFAFA",
"{	c #F7F7F7",
"]	c #F85050",
"^	c #FA3D3D",
"/	c #7474FE",
"(	c #DEDEEA",
"_	c #F6F6F6",
":	c #9595FC",
"<	c #D24770",
"[	c #EC0000",
"}	c #F74444",
"|	c #F53B3B",
"1	c #F30000",
"2	c #4A4AFD",
"3	c #C31C4D",
"4	c #E50000",
"5	c #3F3FF5",
"6	c #EFEFFA",
"7	c #F33434",
"8	c #BE1245",
"9	c #F10D0D",
"0	c #0000E6",
"a	c #4646FB",
"b	c #4040FA",
"c	c #3636F7",
"d	c #3B3BF8",
"e	c #0000FD",
"f	c #4F4FFC",
"g	c #E00000",
"h	c #F83434",
"i	c #6F6FFD",
"j	c #ECECF6",
"k	c #B30000",
"l	c #E8E8F2",
"m	c #7D7DF5",
"n	c #DC6A8C",
"o	c #FA4444",
"p	c #7B0000",
"q	c #CA325F",
"r	c #F80000",
"s	c #B1B1FE",
"t	c #504FFD",
"u	c #F52121",
"v	c #DD0000",
"w	c #FEFEFE",
"x	c #F5F5FF",
"y	c #FFFFFF",
"xxxxx...66jjll;;",
"xyywwww%%%%~~{{(",
"xywww%%%%~~{{_{(",
"2s$$$:::   ))m 0",
"e/--t2abdc='!!50",
"e/-f2abdc='!!@d0",
"eif2abdc='!!@@c0",
"kn<<##qq&&3388qp",
"r,o^|h++uu**99+g",
"r,>>]]]}}||77++v",
"111[[[[[444ggvvv"};
