/* XPM */
static char * sc_xpm[] = {
"16 11 64 1",
" 	c #079007",
".	c #F89396",
"+	c #EF0100",
"@	c #CFE8D2",
"#	c #F85455",
"$	c #FCFA4B",
"%	c #003300",
"&	c #005C00",
"*	c #A5D7A7",
"=	c #000087",
"-	c #39A639",
";	c #F62929",
">	c #F93B3C",
",	c #F6B5B5",
"'	c #FB8B47",
")	c #FB9945",
"!	c #F4F4F4",
"~	c #FDFD52",
"{	c #FCF769",
"]	c #D8D968",
"^	c #F3F1F2",
"/	c #7A7ACA",
"(	c #F96060",
"_	c #8F8E98",
":	c #84520D",
"<	c #F74E4E",
"[	c #FCFC00",
"}	c #E4E4E4",
"|	c #7474C9",
"1	c #5F5FBC",
"2	c #FDFD71",
"3	c #2FA32F",
"4	c #FA4040",
"5	c #F83636",
"6	c #5E5EC1",
"7	c #F73030",
"8	c #05012F",
"9	c #000079",
"0	c #FC9665",
"a	c #C9C900",
"b	c #FA7D85",
"c	c #EBE7DF",
"d	c #FBB267",
"e	c #83C883",
"f	c #A9A9A9",
"g	c #E0E06A",
"h	c #2B9525",
"i	c #F83A3A",
"j	c #9799A8",
"k	c #ECF5F3",
"l	c #66BB66",
"m	c #F7E6ED",
"n	c #E7CFCF",
"o	c #F5C2C2",
"p	c #F6D6D7",
"q	c #F64444",
"r	c #EEF0EE",
"s	c #F67575",
"t	c #F84949",
"u	c #B3D9B3",
"v	c #7070C4",
"w	c #D6DB7C",
"x	c #F9ED00",
"y	c #42AE42",
"=====a[[[x++++++",
"=///f222{0((##<+",
"=/61g~~$'4>57;t+",
"=/6_~~$'4>57;;q+",
"=|1]~$'4>57;;#,n",
"=|_~$'4>577(,^!}",
"=v]$)4>5iso!!^!}",
"=j$)4it.p!!!r@u ",
"9w)4#.m!k@*ly 3%",
"8db,c@*ely--333%",
"::h &&%%%%%%%%%%"};
