/* XPM */
static char * cz_xpm[] = {
"16 11 65 1",
" 	c None",
".	c #0D5DC4",
"+	c #8BAFE0",
"@	c #F5F5F5",
"#	c #F2F2F2",
"$	c #EEEEEE",
"%	c #EAEAEA",
"&	c #E4E5E5",
"*	c #91BCEA",
"=	c #CEDDF2",
"-	c #FEFEFE",
";	c #FDFDFE",
">	c #FDFDFD",
",	c #FCFCFC",
"'	c #FBFBFB",
")	c #FAFAFA",
"!	c #F9F9F9",
"~	c #F8F8F8",
"{	c #F7F7F7",
"]	c #DDDDDD",
"^	c #9BBAE6",
"/	c #76ABE5",
"(	c #C2D5EF",
"_	c #F6F6F6",
":	c #84AADE",
"<	c #BDD2EC",
"[	c #97B8E4",
"}	c #7EA6DD",
"|	c #6DA4E1",
"1	c #D7D7D7",
"2	c #0553BD",
"3	c #7AA3DB",
"4	c #76A0DA",
"5	c #639DDE",
"6	c #C78599",
"7	c #F49B9B",
"8	c #F19494",
"9	c #F08F8F",
"0	c #EF8B8B",
"a	c #EF9999",
"b	c #D50101",
"c	c #92B4E2",
"d	c #719DD8",
"e	c #AF6C89",
"f	c #EC3B3A",
"g	c #ED3434",
"h	c #EC2F2F",
"i	c #EA2A2A",
"j	c #E92424",
"k	c #E81F1F",
"l	c #E61919",
"m	c #E51313",
"n	c #E83636",
"o	c #CA0000",
"p	c #E83232",
"q	c #0044B4",
"r	c #EB2E2E",
"s	c #E30D0D",
"t	c #E72E2E",
"u	c #C30000",
"v	c #F05657",
"w	c #EE5050",
"x	c #ED4B4B",
"y	c #EC4444",
"z	c #DA0000",
".+@@@###$$$%%&&&",
".*=---;>,,')!~{]",
".^/(->>,')!~{_{]",
".^:/<>,')!~{_@_]",
".[:}|<')!~{_@@@1",
"2[}34567788900ab",
"2c34defghijklmno",
"2+4defghijklmmpo",
"q+defgrijklmsstu",
"q:6vvwxyyffnpttu",
"quzzbbbbooooouuu"};
