/* XPM */
static char * dk_xpm[] = {
"16 11 64 1",
" 	c #F05454",
".	c #F77A7A",
"+	c #F7EBEB",
"@	c #F77675",
"#	c #EF3E3E",
"$	c #CE0000",
"%	c #EF4949",
"&	c #F7F7F7",
"*	c #F55D5D",
"=	c #E4E4E4",
"-	c #FBF1F1",
";	c #EC4343",
">	c #E72E2E",
",	c #D50000",
"'	c #F04545",
")	c #DB0000",
"!	c #FAFAFA",
"~	c #F3F3F3",
"{	c #E51212",
"]	c #EB0000",
"^	c #EA2222",
"/	c #E60000",
"(	c #E40D0D",
"_	c #E92525",
":	c #EB3E3E",
"<	c #F26161",
"[	c #EC3131",
"}	c #F45959",
"|	c #ED3737",
"1	c #EB2B2B",
"2	c #F46A6A",
"3	c #F36666",
"4	c #F25D5D",
"5	c #E10000",
"6	c #F04142",
"7	c #E81F1F",
"8	c #E71919",
"9	c #F9F9F9",
"0	c #F4F4F4",
"a	c #E83232",
"b	c #FEFEFE",
"c	c #EE4E4E",
"d	c #C80000",
"e	c #F5F5F5",
"f	c #FBE7E7",
"g	c #F35454",
"h	c #EDEDED",
"i	c #E83535",
"j	c #F15858",
"k	c #E9CFCF",
"l	c #EA3939",
"m	c #EF3B3B",
"n	c #FBFBFB",
"o	c #F24F4F",
"p	c #F10000",
"q	c #F8EAEA",
"r	c #FAF9F9",
"s	c #FCF1F1",
"t	c #FDF4F4",
"u	c #F8F8F8",
"v	c #FCFCFC",
"w	c #C50000",
"x	c #EF0000",
"y	c #FDFDFD",
"pxxx]yf]]//555))",
"x...@bt@23<4j c,",
"x.**}ysg'6m|[1%,",
"].*}gy-o6m|[1_;$",
"]@}gov-6m|[1_7:$",
"ybyvvnr9u&&e0~e=",
"yyvvn!9u&&e0~~0=",
"/2%'#9q|1_78{{ad",
"/3'#muq[^78{((>w",
"/<4j u+c;:lia>>w",
"/55),hk,$$$ddwwd"};
