/* XPM */
static char * en_xpm[] = {
"16 11 64 1",
" 	c #757FB3",
".	c #BFA19D",
"+	c #B6574E",
"@	c #BAA2A3",
"#	c #707AAE",
"$	c #9CA1BA",
"%	c #BE4C3C",
"&	c #6D76AA",
"*	c #B43F2F",
"=	c #BF9A94",
"-	c #4157A7",
";	c #E4EAFE",
">	c #FEF6F6",
",	c #FED6CF",
"'	c #FEF9FB",
")	c #E0E6FE",
"!	c #F3F5FE",
"~	c #FFCBC4",
"{	c #DEE3FE",
"]	c #FEB1A7",
"^	c #FEF3F1",
"/	c #C7D2FF",
"(	c #3F4BA5",
"_	c #FFEFEE",
":	c #FFADAD",
"<	c #FFF0F4",
"[	c #E8EDFF",
"}	c #FF9C98",
"|	c #FFEDF1",
"1	c #FF6B66",
"2	c #FFE9E8",
"3	c #94ACFC",
"4	c #BBC7FE",
"5	c #3F40A3",
"6	c #FF7A76",
"7	c #FFA994",
"8	c #849DFC",
"9	c #BF827A",
"0	c #FFEBEA",
"a	c #FFD8D5",
"b	c #FF4B48",
"c	c #FFC0BC",
"d	c #FFB8B5",
"e	c #FF615F",
"f	c #FF3D3D",
"g	c #FF322F",
"h	c #FF2926",
"i	c #FF1C18",
"j	c #FD8676",
"k	c #BF6B5F",
"l	c #FFD3D3",
"m	c #FEE1E3",
"n	c #C2CEFF",
"o	c #FF7270",
"p	c #FFF7F9",
"q	c #FFE4EC",
"r	c #6276E3",
"s	c #A7B2EE",
"t	c #3F3F73",
"u	c #EDF0FF",
"v	c #FFD2DB",
"w	c #A3ADE4",
"x	c #7A97B8",
"y	c #8F3F2F",
" .+@##$%+$&&@*=-",
" ;>,')!~,!{>]^/(",
" ;/_:<[}];|12345",
" ;//^:<67|1_3845",
"90aaaa6bb1,~cd,*",
"%~}}6ebfgghhiij*",
"k2lllmfghg~cd:a*",
"#)nn_opggqfarrst",
"#)n0o|uhg/vgcrwt",
"#)^]>n!jj{smj,wt",
"#=*@-5x**-tt+y*t"};
