/* XPM */
static char * hr_xpm[] = {
"16 11 64 1",
" 	c #0030AE",
".	c #FE7A7A",
"+	c #F2F2F2",
"@	c #77ACDF",
"#	c #63A0DB",
"$	c #6AC6DE",
"%	c #F50000",
"&	c #F6F6F6",
"*	c #000696",
"=	c #F62B2B",
"-	c #F73030",
";	c #FB5353",
">	c #0046BA",
",	c #FB6C6C",
"'	c #FA6363",
")	c #5B99D5",
"!	c #EB0000",
"~	c #85B5E4",
"{	c #FE5D5D",
"]	c #639DD8",
"^	c #E5E5E5",
"/	c #73A9DF",
"(	c #3A85CC",
"_	c #FCFCFC",
":	c #FB7575",
"<	c #6EA7DE",
"[	c #5594D2",
"}	c #F73636",
"|	c #FA4040",
"1	c #001CA4",
"2	c #488DD1",
"3	c #FEFEFE",
"4	c #000091",
"5	c #FBD0D0",
"6	c #5E9DD9",
"7	c #4289CE",
"8	c #F7C8C8",
"9	c #FE5959",
"0	c #F52626",
"a	c #5896D3",
"b	c #4C90D3",
"c	c #EFEFEF",
"d	c #5496D6",
"e	c #7DB1E2",
"f	c #F64444",
"g	c #F74949",
"h	c #0054C1",
"i	c #FBFBFB",
"j	c #FBFCFB",
"k	c #FC4B4B",
"l	c #F75757",
"m	c #00109D",
"n	c #F85C5C",
"o	c #4A7AAD",
"p	c #68A2DB",
"q	c #69A4DE",
"r	c #6CA4DB",
"s	c #5193D3",
"t	c #F5F5F5",
"u	c #FD0000",
"v	c #F9CCCC",
"w	c #F4F4F4",
"x	c #FDFDFD",
"y	c #FF0000",
"yyyyuuuuu%%%%%!!",
"y......::,,''nl!",
"y.{{9;/$q$|}-=g!",
"y.{9;;k5|v}-=0f!",
"x33x_&5|v}+&twt^",
"x3x__&|v}8+tw+t^",
"xx_jitv}8=cw++w^",
"h~<p#6o-=o277(a4",
"h~p#6)dsb27((([4",
">ee@/<rp]6))[[s4",
">>    11mm**4444"};
