/* XPM */
static char * it_xpm[] = {
"16 11 64 1",
" 	c #F74C4C",
".	c #008500",
"+	c #E2E2E2",
"@	c #DEDEDE",
"#	c #E60000",
"$	c #F21313",
"%	c #F95555",
"&	c #F4F4F4",
"*	c #F53D3D",
"=	c #EC0000",
"-	c #F22E2E",
";	c #58BA59",
">	c #005700",
",	c #F10D0D",
"'	c #FEFEFE",
")	c #5CBD5C",
"!	c #F30000",
"~	c #43AF42",
"{	c #54B655",
"]	c #007D00",
"^	c #7BCA7B",
"/	c #006500",
"(	c #54B954",
"_	c #F52525",
":	c #F31919",
"<	c #4FB64F",
"[	c #007600",
"}	c #F33232",
"|	c #E00000",
"1	c #008900",
"2	c #C2C2C2",
"3	c #F73131",
"4	c #49B449",
"5	c #F41F1F",
"6	c #F62B2B",
"7	c #79C879",
"8	c #74C674",
"9	c #E5E5E5",
"0	c #006F00",
"a	c #009100",
"b	c #F43636",
"c	c #58BC58",
"d	c #CDCDCD",
"e	c #F62C2C",
"f	c #C8C8C8",
"g	c #4BB34B",
"h	c #F83737",
"i	c #3AAA3A",
"j	c #68C268",
"k	c #FA5C5C",
"l	c #F33535",
"m	c #F64444",
"n	c #60BF61",
"o	c #DBDBDB",
"p	c #F5F5F5",
"q	c #DD0000",
"r	c #FDFDFD",
"s	c #FBFBFB",
"t	c #FCFCFC",
"u	c #F6F6F6",
"v	c #FAFAFA",
"w	c #F9F9F9",
"x	c #F8F8F8",
"y	c #F7F7F7",
"a11..9++@@o!!!==",
".^^77'rrttsk%% =",
"1^n);rrtsvwh3e #",
".7);{rtsvwx36_m#",
".8c(<tsvwxy6_5*#",
".8(<gsvwxyu_5:*#",
"]8<4~vwxyup5:$b#",
"]j4~~wxyup&:$$}|",
"[j~~ixyup&&$,,-|",
"0n);{xyyup&l}--q",
"[//>>dff222||qqq"};
