/* XPM */
static char * pl_xpm[] = {
"16 11 64 1",
" 	c #FFF1F1",
".	c #FDF1F1",
"+	c #FDEFF1",
"@	c #FDEEEE",
"#	c #FBEDED",
"$	c #F9EBEB",
"%	c #F7E9E9",
"&	c #F4E6E6",
"*	c #F1E3E3",
"=	c #EFE1E1",
"-	c #EDDFDF",
";	c #FFFFFF",
">	c #FEFEFE",
",	c #FDFDFD",
"'	c #FCFCFC",
")	c #FBFBFB",
"!	c #FAFAFA",
"~	c #F9F9F9",
"{	c #F8F8F8",
"]	c #F7F7F7",
"^	c #EBDDDD",
"/	c #F6F6F6",
"(	c #E9D9D9",
"_	c #F5F5F5",
":	c #E7D6D6",
"<	c #FDFCFD",
"[	c #FC0000",
"}	c #FE8E8E",
"|	c #FD7474",
"1	c #FC6E6E",
"2	c #FB6868",
"3	c #FB6565",
"4	c #F86060",
"5	c #FA5D5D",
"6	c #F85859",
"7	c #F85354",
"8	c #F74F4F",
"9	c #F64A4A",
"0	c #F54343",
"a	c #E60000",
"b	c #FC4F4F",
"c	c #FB4A49",
"d	c #FA4545",
"e	c #FA3F3F",
"f	c #F93A3A",
"g	c #F73535",
"h	c #F72F2F",
"i	c #F62A2A",
"j	c #F52424",
"k	c #F41F1F",
"l	c #F31919",
"m	c #F21414",
"n	c #E20000",
"o	c #FC6A6A",
"p	c #F21010",
"q	c #F33333",
"r	c #DF0000",
"s	c #F10D0D",
"t	c #F22E2E",
"u	c #F40000",
"v	c #F53B3B",
"w	c #DD0000",
"x	c #EE0000",
"y	c #EA0000",
"    .+@@#$%&&*=-",
" ;;>>>,,'')!~{]^",
" ;>>>,,')!~{]/](",
" >>>,,')!~{]/_/:",
".>>,<')!~{]/___:",
"[}|112345678904a",
"[1bcdefghijklmgn",
"[ocdefghijklmpqr",
"[3defghijklmpstr",
"u456789d0vvqqttw",
"uuuxxxyyaannrwww"};
