/* XPM */
static char * pt_xpm[] = {
"16 11 64 1",
" 	c #B6BA43",
".	c #5A9B5A",
"+	c #F2AD47",
"@	c #F42D2C",
"#	c #EE7356",
"$	c #F41C1C",
"%	c #F53232",
"&	c #9BB451",
"*	c #6AA56A",
"=	c #E8A935",
"-	c #F95757",
";	c #003600",
">	c #E1C935",
",	c #74AC74",
"'	c #F52424",
")	c #F53C3C",
"!	c #E50000",
"~	c #F74B4B",
"{	c #499149",
"]	c #FC6363",
"^	c #529552",
"/	c #3D873D",
"(	c #EB0000",
"_	c #FD6B6B",
":	c #F64444",
"<	c #F21313",
"[	c #F40000",
"}	c #C9C854",
"|	c #FC0000",
"1	c #F10D0D",
"2	c #001400",
"3	c #7BB07B",
"4	c #F93C3D",
"5	c #F73736",
"6	c #E00000",
"7	c #78AE78",
"8	c #EA8376",
"9	c #F5DBD4",
"0	c #CEC84F",
"a	c #F9C151",
"b	c #D9C23C",
"c	c #FD7071",
"d	c #69A25C",
"e	c #D6E8FA",
"f	c #539145",
"g	c #F53C36",
"h	c #E7785C",
"i	c #F04130",
"j	c #419134",
"k	c #EEDDDD",
"l	c #ED7C4E",
"m	c #609F61",
"n	c #F33529",
"o	c #F4674C",
"p	c #E2D057",
"q	c #EEBA36",
"r	c #FB5347",
"s	c #F0B83D",
"t	c #448E44",
"u	c #FA4242",
"v	c #EA692A",
"w	c #E6D0D4",
"x	c #DD0000",
"y	c #004D00",
"yyyyyy||||[[[[((",
"y3377,c__]]---~(",
"y3md&}a+ru45%@~(",
"y7.pp#o++45%@':!",
"y,.}l9w#sg%@'$)!",
"y,^0lkehqi@'$$)!",
";*^& h8>>@'$$<5!",
";*{f b==v'$$<<%6",
";*t//j@n'$$<11@6",
";m..^^~::)55%@@x",
";22222((!!!66xxx"};
