/* XPM */
static char * se_xpm[] = {
"16 11 64 1",
" 	c #468EB2",
".	c #FEE375",
"+	c #000032",
"@	c #F9D43B",
"#	c #F3C91B",
"$	c #3382A9",
"%	c #2C7CA4",
"&	c #196CA2",
"*	c #F5CC23",
"=	c #E58B00",
"-	c #5C9DBD",
";	c #6BA5C3",
">	c #4C92B5",
",	c #FDBD00",
"'	c #F5D13D",
")	c #F8D235",
"!	c #12699D",
"~	c #1C71A0",
"{	c #337DA9",
"]	c #00246C",
"^	c #EC9B00",
"/	c #3985AB",
"(	c #3D89AE",
"_	c #0D6996",
":	c #000956",
"<	c #FAD640",
"[	c #438BB0",
"}	c #66A2C0",
"|	c #2579A2",
"1	c #000043",
"2	c #FDDB51",
"3	c #FBD746",
"4	c #F6CE2B",
"5	c #7BB0CA",
"6	c #FEDD59",
"7	c #F7D02F",
"8	c #5899B9",
"9	c #609FBE",
"0	c #003074",
"a	c #FDDC54",
"b	c #000021",
"c	c #FCD94B",
"d	c #001963",
"e	c #FCDA4F",
"f	c #79AEC9",
"g	c #F6CF32",
"h	c #FDC100",
"i	c #00135D",
"j	c #F7D64B",
"k	c #EDA100",
"l	c #5396B7",
"m	c #2377A1",
"n	c #FDDC53",
"o	c #F8D850",
"p	c #5093AE",
"q	c #F9D955",
"r	c #5896C3",
"s	c #00417F",
"t	c #5C9BBB",
"u	c #F2C714",
"v	c #FDE270",
"w	c #FBD949",
"x	c #3080A8",
"y	c #004381",
"yyyyh,,00]]di::1",
"y55f..v;;}9t8l>1",
"y59-6a2> [(/x% 1",
"sf-ra2cp[(/x%|[1",
"h.6a2c3<@)74**'=",
",.nec3<@)74**#'=",
",vew3<@)74*##ug=",
"0;> <@)x%|~&!!{1",
"]} (@)7%m~~!__%b",
"]9-8qoj [//$x%%b",
"di::k^^1+++bbbbb"};
