/* XPM */
static char * sl_xpm[] = {
"16 11 64 1",
" 	c #7BE27B",
".	c #3BD43B",
"+	c #F3F3FA",
"@	c #FEFEFE",
"#	c #00A700",
"$	c #1819C5",
"%	c #6CDD6C",
"&	c #63DD62",
"*	c #82E682",
"=	c #2B2BC9",
"-	c #FAFAFA",
";	c #F8F8F8",
">	c #F6F6F6",
",	c #4949D2",
"'	c #56D956",
")	c #74DD73",
"!	c #8AE68A",
"~	c #4BD74B",
"{	c #0000A8",
"]	c #00007B",
"^	c #8282E2",
"/	c #6464DC",
"(	c #00B300",
"_	c #93E993",
":	c #5B5BD9",
"<	c #7373DC",
"[	c #74E274",
"}	c #D6D6E2",
"|	c #8A8AE5",
"1	c #67E168",
"2	c #3434CB",
"3	c #5252D5",
"4	c #3E3ED0",
"5	c #000097",
"6	c #F3F3F3",
"7	c #00BC00",
"8	c #7A79DD",
"9	c #6565D6",
"0	c #3A3ACF",
"a	c #000088",
"b	c #009D00",
"c	c #A0A0EA",
"d	c #5EDE5E",
"e	c #5CDB5C",
"f	c #2D2DD1",
"g	c #FBFBFB",
"h	c #0D0DC0",
"i	c #7C7CE0",
"j	c #4343D2",
"k	c #82DF81",
"l	c #A7EDA7",
"m	c #6A6AD7",
"n	c #D3D3DF",
"o	c #53D753",
"p	c #85E485",
"q	c #00C100",
"r	c #6E6ED9",
"s	c #81E281",
"t	c #8EE88E",
"u	c #42D442",
"v	c #F5F5F5",
"w	c #FCFCFC",
"x	c #F4F4F4",
"y	c #00C300",
"yyyyyq777((((###",
"y****  [[%%&&e'b",
"y*11&de'o~~u..ob",
".l__t!!ps  ))%k(",
"+@@@wwg--;;>vxv}",
"+@@wwg--;;>vx6v}",
"+@wwg--;;>vx66xn",
"fc||^^i8<<rm998{",
"{/j402f==$$$hh=]",
"{/::33,,j4022==]",
"{{{5555aaaa]]]]]"};
