/* XPM */
static char * sr_xpm[] = {
"16 11 32 1",
" 	c #DB5950",
".	c #D63333",
"+	c #3073A4",
"@	c #DB786B",
"#	c #ECC8C9",
"$	c #00569B",
"%	c #D50000",
"&	c #001C72",
"*	c #F46458",
"=	c #E35C52",
"-	c #F0F0F0",
";	c #C90000",
">	c #CD3E43",
",	c #EDEDED",
"'	c #EAEAEA",
")	c #005BA3",
"!	c #E83737",
"~	c #DF0000",
"{	c #E7E7E7",
"]	c #EA6055",
"^	c #D25E61",
"/	c #F5F577",
"(	c #F4F4F4",
"_	c #F0B9B9",
":	c #EDA3A4",
"<	c #C10000",
"[	c #3580B6",
"}	c #F1F1F1",
"|	c #005598",
"1	c #F2F2F2",
"2	c #E5E5E5",
"3	c #F5F5F5",
"~~~~~%%%%%%;;;;;",
"~*****]]]]===  <",
"~*!!.@@>...... <",
"%*!!>//>...... <",
"&[)):>>_$$$$||+&",
"&[))_31#$$$|||+&",
"&[))@^^@$|||||+&",
"3333>##>((1}}-32",
"(333#@@#1}}}--12",
"-33333}1111--112",
",'''{{2222222222"};
