/* XPM */
static char * tr_xpm[] = {
"16 11 64 1",
" 	c #F88787",
".	c #FB4949",
"+	c #FCF4F4",
"@	c #F53C3C",
"#	c #EC0000",
"$	c #FCB2B2",
"%	c #F40000",
"&	c #E50000",
"*	c #F74B4B",
"=	c #F64343",
"-	c #FA4646",
";	c #FE5D5D",
">	c #FE7A7A",
",	c #F93C3D",
"'	c #F21313",
")	c #F73131",
"!	c #FE7676",
"~	c #FC7E7E",
"{	c #F22E2E",
"]	c #F42020",
"^	c #F95151",
"/	c #FD9E9E",
"(	c #F95455",
"_	c #FA6161",
":	c #FE7172",
"<	c #FD6E6E",
"[	c #F10D0D",
"}	c #FA4040",
"|	c #F52525",
"1	c #FA0000",
"2	c #FE5959",
"3	c #F8E4E4",
"4	c #F93B3A",
"5	c #FA7171",
"6	c #F31919",
"7	c #FC6A6A",
"8	c #FC6666",
"9	c #FA5D5D",
"0	c #F41F1F",
"a	c #F83737",
"b	c #F33232",
"c	c #E00000",
"d	c #F62C2C",
"e	c #FCE4E4",
"f	c #F7F5F5",
"g	c #F7B7B7",
"h	c #FDE9E9",
"i	c #F95858",
"j	c #FBA2A2",
"k	c #F78C8C",
"l	c #F43636",
"m	c #F8D8D8",
"n	c #F56262",
"o	c #F5D1D1",
"p	c #FD5353",
"q	c #FC5555",
"r	c #F33535",
"s	c #FCBFC0",
"t	c #FB6565",
"u	c #F6EFEF",
"v	c #F7D7D7",
"w	c #DD0000",
"x	c #FD0000",
"y	c #FF0000",
"yyyyxxxx11%%%%##",
"y~>>!!:<7t_9i(*#",
"y~;;2//q-},a)d*#",
"y~;2$hes.,a)d|=&",
"x>2>+~-5,3=d|]@&",
"x:ps+-}43fun06@&",
"x<^j+54_g~o]6'l&",
"17.-$3mv)|06''bc",
"18-}4 k)|06'[[{c",
"%t9i(^*-=@lrb{{w",
"%%%#####&&&ccwww"};
