/* XPM */
static char * unknown_xpm[] = {
"16 11 38 1",
" 	c None",
".	c #FF9100",
"+	c #FF8900",
"@	c #FF8700",
"#	c #FD8300",
"$	c #FFC97A",
"%	c #FEC877",
"&	c #FEBE5D",
"*	c #FEBB59",
"=	c #000000",
"-	c #251C0D",
";	c #9E7639",
">	c #FDB854",
",	c #FCB753",
"'	c #BE8E45",
")	c #191309",
"!	c #FEBC58",
"~	c #FCB651",
"{	c #DB9E46",
"]	c #2B200F",
"^	c #956C31",
"/	c #FEC673",
"(	c #FCB34B",
"_	c #30220E",
":	c #A97B38",
"<	c #FC7D00",
"[	c #FDC46D",
"}	c #FBB449",
"|	c #FBB145",
"1	c #FAAC3D",
"2	c #F97700",
"3	c #FCC066",
"4	c #F67200",
"5	c #FBBE62",
"6	c #FABC5D",
"7	c #F9B958",
"8	c #F26500",
"9	c #EE5700",
".++@#+@#+@#+@++.",
"@$$%%$%%$%%$%$$@",
"+$&&*&==-;*&&&$+",
"@%&*>&*,')>&*&%@",
"@%!>~!>{]^~!>!%@",
"#/>~(>~_:~(>~>/#",
"<[~}|~}=~}|~}~[<",
"<[}|1}|1}|1}|}[<",
"23|11|1=|11|1|32",
"4567~67~67~67654",
"4889989989989884"};
